<?xml version="1.0" standalone="no"?><!DOCTYPE svg PUBLIC "-//W3C//DTD SVG 1.1//EN" "http://www.w3.org/Graphics/SVG/1.1/DTD/svg11.dtd"><svg t="1614761889020" class="icon" viewBox="0 0 1103 1024" version="1.1" xmlns="http://www.w3.org/2000/svg" p-id="1139" xmlns:xlink="http://www.w3.org/1999/xlink" width="215.4296875" height="200"><defs><style type="text/css"></style></defs><path d="M730.600914 60.916285C730.399474 90.787712 730.294066 105.729771 730.133489 126.649197 729.941831 151.057966 729.866469 160.123562 729.741229 173.62176 729.602983 188.521815 729.474527 200.36299 729.357024 208.763008 729.264129 215.043217 729.264129 215.043217 729.167898 219.697428 729.117022 221.76186 729.117022 221.76186 729.037874 223.914744 728.984494 225.167251 728.984494 225.167251 728.818847 227.573169 740.97633 223.439081 740.97633 223.439081 650.262602 300.306638 607.455854 300.306638 559.419924 304.997452 509.173805 316.280024 437.781161 332.310865 373.814224 359.301099 318.789382 396.370434 247.986168 444.069973 192.196228 508.506084 152.48747 588.760774 105.949315 682.820319 80.94256 800.273715 78.974035 938.33958 78.155336 939.456102 77.356232 940.550404 76.576917 941.621752 71.869459 926.94272 60.156764 914.888688 44.388109 910.077141 39.692764 908.643808 34.805945 907.919029 29.904413 907.919029 19.17823 907.919029 8.962323 911.375754 0.645345 917.488798 0.701494 915.596249 0.761814 913.707071 0.826303 911.821273 33.760544 863.685979 85.799648 798.86633 151.187235 735.643569 209.448745 679.311965 269.193317 634.042556 329.09468 601.190116 405.39968 559.341948 482.365551 537.579693 557.616536 537.579693 597.599842 537.579693 637.29325 543.771875 675.822316 555.98243L730.794617 573.404142 730.794617 631.07103 730.794617 824.929343C728.088223 808.914897 717.27552 794.38221 701.182812 787.554452 684.667381 780.55319 665.890968 783.119405 652.025386 793.626845L1037.753604 397.770915C1019.521079 416.442993 1019.521079 445.954369 1037.749973 464.625124L651.773824 69.291637C665.662807 79.250592 684.575036 81.892767 701.204594 74.839118 717.375849 67.978029 728.219915 53.3106 730.39161 37.060468 730.730387 41.029847 730.692759 46.809305 730.600914 60.916285ZM491.916305 239.424507C557.75225 224.6413 614.362662 221.537408 650.262602 221.537408 650.856162 221.537408 652.025386 30.551759 652.025386 30.551759 652.025386 18.19576 659.292767 7.055656 670.439168 2.326496 681.588552-2.402663 694.414219 0.212428 702.944781 8.948237L1094.111256 409.597881C1105.760248 421.529234 1105.760248 440.872047 1094.111256 452.801872L702.944781 853.454572C694.411237 862.191907 681.584078 864.800886 670.439168 860.076308 659.292767 855.347153 652.025386 844.207049 652.025386 831.851047L652.025386 631.07103C621.178162 621.294989 589.509201 616.348923 557.616536 616.348923 496.336686 616.348923 432.193431 634.485006 366.971925 670.254623 313.563456 699.546085 259.382464 740.599346 205.939694 792.271833 113.805163 881.356004 55.440916 971.960044 54.862269 972.865851 49.248802 981.647486 39.778687 986.68826 29.904413 986.68826 27.073818 986.68826 24.207431 986.274304 21.390258 985.414317 8.745043 981.555838 0.078769 969.648924 0.078769 956.135077 0.077278 798.898152 27.60325 663.544287 81.887145 553.829615 127.60767 461.424645 192.505552 386.469908 274.779231 331.042811 338.100749 288.384141 411.154861 257.559063 491.916305 239.424507Z" p-id="1140"></path></svg>